<?xml version="1.0" standalone="no"?>
<!DOCTYPE svg PUBLIC "-//W3C//DTD SVG 20010904//EN"
 "http://www.w3.org/TR/2001/REC-SVG-20010904/DTD/svg10.dtd">
<svg version="1.0" xmlns="http://www.w3.org/2000/svg"
 width="24.000000pt" height="24.000000pt" viewBox="0 0 24.000000 24.000000"
 preserveAspectRatio="xMidYMid meet">

<g transform="translate(0.000000,24.000000) scale(0.100000,-0.100000)"
fill="#000000" stroke="none">
<path d="M36 201 c-13 -15 -16 -34 -14 -92 l3 -74 95 0 95 0 3 74 c4 99 -7
111 -98 111 -53 0 -70 -4 -84 -19z m117 -8 c-18 -2 -48 -2 -65 0 -18 2 -4 4
32 4 36 0 50 -2 33 -4z m47 -83 l0 -60 -80 0 -80 0 0 60 0 60 80 0 80 0 0 -60z"/>
<path d="M100 136 c0 -8 -5 -16 -11 -18 -5 -2 1 -13 14 -26 l23 -22 24 25 c19
21 21 25 7 25 -9 0 -17 7 -17 15 0 8 -9 15 -20 15 -11 0 -20 -6 -20 -14z"/>
</g>
</svg>
