<?xml version="1.0" standalone="no"?>
<!DOCTYPE svg PUBLIC "-//W3C//DTD SVG 20010904//EN"
 "http://www.w3.org/TR/2001/REC-SVG-20010904/DTD/svg10.dtd">
<svg version="1.0" xmlns="http://www.w3.org/2000/svg"
 width="24.000000pt" height="24.000000pt" viewBox="0 0 24.000000 24.000000"
 preserveAspectRatio="xMidYMid meet">

<g transform="translate(0.000000,24.000000) scale(0.100000,-0.100000)"
fill="#000000" stroke="none">
<path d="M71 206 c-29 -16 -50 -52 -51 -88 0 -31 44 -88 68 -88 13 0 11 5 -8
23 -14 12 -21 19 -16 15 14 -11 36 -10 36 1 0 5 -9 11 -20 14 -14 4 -20 13
-19 34 1 49 10 58 59 58 49 0 58 -9 59 -58 1 -21 -5 -30 -19 -34 -13 -3 -20
-14 -20 -29 0 -39 42 -28 65 17 47 91 -45 184 -134 135z"/>
</g>
</svg>
